<?xml version="1.0" encoding="utf-8"?>
<!-- Generator: Adobe Illustrator 23.0.6, SVG Export Plug-In . SVG Version: 6.00 Build 0)  -->
<svg version="1.1" id="Layer_1" xmlns="http://www.w3.org/2000/svg" xmlns:xlink="http://www.w3.org/1999/xlink" x="0px" y="0px"
	 viewBox="0 0 1920 1080" style="enable-background:new 0 0 1920 1080;" xml:space="preserve">
<style type="text/css">
	.st0{fill:none;stroke:#000000;stroke-width:5;stroke-linecap:round;stroke-linejoin:round;stroke-miterlimit:10;}
	.st1{opacity:0.25;}
	
		.st2{fill:none;stroke:#000000;stroke-linecap:round;stroke-linejoin:round;stroke-miterlimit:10;stroke-dasharray:48.1761,9.6352,9.6352,9.6352;}
	.st3{fill:none;stroke:#000000;stroke-miterlimit:10;stroke-dasharray:48.176,9.6352,9.6352,9.6352;}
	.st4{stroke:#000000;stroke-linecap:round;stroke-linejoin:round;stroke-miterlimit:10;}
	
		.st5{fill:none;stroke:#000000;stroke-linecap:round;stroke-linejoin:round;stroke-miterlimit:10;stroke-dasharray:48.176,9.6352,9.6352,9.6352;}
	.st6{fill:#F7931E;}
	.st7{fill:none;stroke:#000000;stroke-miterlimit:10;}
	.st8{opacity:0.22;fill:#0000FF;}
</style>
<g id="ARC">
	<path class="st0" d="M452.89,470.37c-5.84,44.37-5.84,89.32,0,133.69"/>
</g>
<g class="st1">
	<g id="CIRCLE">
		<path class="st2" d="M448.04,540.21c0-282.83,229.28-512.11,512.11-512.11s512.11,229.28,512.11,512.11
			s-229.28,512.11-512.11,512.11S448.04,823.04,448.04,540.21L448.04,540.21z"/>
	</g>
</g>
<circle class="st0" cx="1472" cy="540" r="2.5"/>
<g>
	<path d="M1498.94,531.35h-15.08v-3.52l6.93-8.81c0.88-1.22,1.53-2.29,1.94-3.21s0.62-1.8,0.62-2.65c0-1.14-0.2-2.03-0.59-2.67
		s-0.96-0.97-1.7-0.97c-0.81,0-1.45,0.38-1.92,1.13s-0.71,1.8-0.71,3.16h-4.99c0-1.57,0.33-3.01,0.98-4.31s1.56-2.31,2.74-3.03
		s2.51-1.08,4-1.08c2.29,0,4.06,0.63,5.32,1.89s1.89,3.05,1.89,5.37c0,1.44-0.35,2.9-1.05,4.39s-1.96,3.31-3.79,5.48l-3.29,4.69h8.7
		V531.35z"/>
	<path d="M1515.66,520.91h-8.03v10.44h-5.17v-25.59h14.17v4.31h-9v6.56h8.03V520.91z"/>
</g>
<line class="st3" x1="1473" y1="590" x2="453" y2="604"/>
<line class="st3" x1="452.5" y1="470.5" x2="1472.5" y2="590.5"/>
<polygon class="st4" points="1472.02,491 1484.5,462.5 1459.55,462.5 "/>
<line class="st5" x1="452.5" y1="604.5" x2="1472.5" y2="490.5"/>
<line class="st5" x1="452.5" y1="470.5" x2="1472.5" y2="490.5"/>
<circle class="st6" cx="1472.5" cy="589.5" r="12.5"/>
<line class="st7" x1="1653" y1="538.5" x2="1653" y2="443.5"/>
<line class="st3" x1="1472.5" y1="490.5" x2="1653" y2="490.5"/>
<g>
	<path d="M1685.01,494.17c-0.13,2.92-0.95,5.13-2.46,6.63s-3.64,2.25-6.4,2.25c-2.89,0-5.11-0.95-6.65-2.86s-2.31-4.62-2.31-8.15
		v-4.31c0-3.52,0.8-6.23,2.39-8.13s3.81-2.86,6.64-2.86c2.79,0,4.91,0.78,6.35,2.34s2.27,3.8,2.47,6.71h-5.19
		c-0.05-1.8-0.33-3.05-0.83-3.74s-1.44-1.03-2.8-1.03c-1.38,0-2.36,0.48-2.94,1.45s-0.88,2.56-0.91,4.77v4.83
		c0,2.54,0.28,4.29,0.85,5.24s1.54,1.42,2.93,1.42c1.36,0,2.3-0.33,2.81-0.99s0.81-1.86,0.88-3.59H1685.01z"/>
	<path d="M1696.99,502.7c-0.14-0.29-0.28-0.79-0.42-1.48c-0.89,1.22-2.1,1.83-3.62,1.83c-1.59,0-2.92-0.53-3.96-1.58
		s-1.57-2.42-1.57-4.1c0-1.99,0.64-3.53,1.91-4.62s3.1-1.65,5.49-1.67h1.51v-1.53c0-0.86-0.15-1.46-0.44-1.81s-0.72-0.53-1.28-0.53
		c-1.24,0-1.86,0.73-1.86,2.18h-4.97c0-1.76,0.66-3.21,1.98-4.35s2.99-1.71,5-1.71c2.09,0,3.7,0.54,4.84,1.63s1.71,2.63,1.71,4.65
		v8.95c0.02,1.64,0.26,2.92,0.7,3.85v0.3H1696.99z M1694.05,499.15c0.55,0,1.02-0.11,1.41-0.33s0.67-0.49,0.86-0.79v-3.96h-1.2
		c-0.84,0-1.51,0.27-2,0.81s-0.73,1.26-0.73,2.16C1692.4,498.44,1692.95,499.15,1694.05,499.15z"/>
	<path d="M1709.57,483.68l0.14,1.76c1.11-1.41,2.58-2.11,4.41-2.11c1.9,0,3.24,0.86,4.03,2.57c1.09-1.71,2.64-2.57,4.66-2.57
		c3.33,0,5.03,2.3,5.12,6.91v12.46h-4.97v-12.15c0-1.1-0.15-1.89-0.46-2.36s-0.82-0.7-1.55-0.7c-0.93,0-1.62,0.57-2.07,1.71
		l0.04,0.6v12.9h-4.97v-12.11c0-1.09-0.15-1.88-0.44-2.36s-0.81-0.73-1.56-0.73c-0.86,0-1.54,0.46-2.04,1.39v13.82h-4.97v-19.02
		H1709.57z"/>
	<path d="M1739.28,503.05c-2.55,0-4.55-0.76-5.98-2.29s-2.14-3.7-2.14-6.54v-1.51c0-3,0.66-5.31,1.97-6.94s3.19-2.44,5.64-2.44
		c2.39,0,4.19,0.76,5.4,2.29c1.21,1.53,1.82,3.79,1.85,6.78v2.44h-9.9c0.07,1.41,0.38,2.45,0.93,3.1c0.55,0.65,1.4,0.98,2.55,0.98
		c1.66,0,3.05-0.57,4.17-1.71l1.95,3.01c-0.61,0.84-1.49,1.53-2.65,2.05S1740.64,503.05,1739.28,503.05z M1736.15,491.38h4.97v-0.46
		c-0.02-1.14-0.21-2-0.56-2.58s-0.96-0.88-1.83-0.88s-1.5,0.31-1.89,0.93S1736.22,490,1736.15,491.38z"/>
	<path d="M1758.21,488.48l-1.65-0.14c-1.36,0-2.28,0.6-2.76,1.79v12.57h-4.99v-19.02h4.69l0.14,2.06c0.79-1.61,1.87-2.41,3.25-2.41
		c0.56,0,1.02,0.08,1.37,0.23L1758.21,488.48z"/>
	<path d="M1769.27,502.7c-0.14-0.29-0.28-0.79-0.42-1.48c-0.89,1.22-2.1,1.83-3.62,1.83c-1.59,0-2.92-0.53-3.96-1.58
		s-1.57-2.42-1.57-4.1c0-1.99,0.64-3.53,1.91-4.62s3.1-1.65,5.49-1.67h1.51v-1.53c0-0.86-0.15-1.46-0.44-1.81s-0.72-0.53-1.28-0.53
		c-1.24,0-1.86,0.73-1.86,2.18h-4.97c0-1.76,0.66-3.21,1.98-4.35s2.99-1.71,5-1.71c2.09,0,3.7,0.54,4.84,1.63s1.71,2.63,1.71,4.65
		v8.95c0.02,1.64,0.26,2.92,0.7,3.85v0.3H1769.27z M1766.33,499.15c0.55,0,1.02-0.11,1.41-0.33s0.67-0.49,0.86-0.79v-3.96h-1.2
		c-0.84,0-1.51,0.27-2,0.81s-0.73,1.26-0.73,2.16C1764.68,498.44,1765.23,499.15,1766.33,499.15z"/>
</g>
<g>
	<path d="M1477.01,451.87v-25.59h7.91c2.67,0,4.7,0.59,6.09,1.78s2.08,2.93,2.08,5.23c0,1.3-0.29,2.42-0.86,3.36
		s-1.36,1.62-2.36,2.06c1.15,0.33,2.03,0.99,2.65,1.98s0.93,2.21,0.93,3.67c0,2.48-0.68,4.36-2.05,5.63s-3.34,1.9-5.93,1.9H1477.01z
		 M1482.18,436.98h2.69c2.03,0,3.04-1.05,3.04-3.15c0-1.16-0.23-1.99-0.7-2.5s-1.23-0.76-2.29-0.76h-2.74V436.98z M1482.18,440.74
		v6.84h3.3c0.93,0,1.63-0.29,2.11-0.86s0.72-1.39,0.72-2.44c0-2.3-0.83-3.47-2.5-3.53H1482.18z"/>
	<path d="M1502.18,451.87h-4.99v-27h4.99V451.87z"/>
	<path d="M1515.07,451.87c-0.14-0.29-0.28-0.79-0.42-1.48c-0.89,1.22-2.1,1.83-3.62,1.83c-1.59,0-2.92-0.53-3.96-1.58
		s-1.57-2.42-1.57-4.1c0-1.99,0.64-3.53,1.91-4.62s3.1-1.65,5.49-1.67h1.51v-1.53c0-0.86-0.15-1.46-0.44-1.81s-0.72-0.53-1.28-0.53
		c-1.24,0-1.86,0.73-1.86,2.18h-4.97c0-1.76,0.66-3.21,1.98-4.35s2.99-1.71,5-1.71c2.09,0,3.7,0.54,4.84,1.63s1.71,2.63,1.71,4.65
		v8.95c0.02,1.64,0.26,2.92,0.7,3.85v0.3H1515.07z M1512.13,448.32c0.55,0,1.02-0.11,1.41-0.33s0.67-0.49,0.86-0.79v-3.96h-1.2
		c-0.84,0-1.51,0.27-2,0.81s-0.73,1.26-0.73,2.16C1510.48,447.62,1511.03,448.32,1512.13,448.32z"/>
	<path d="M1522.31,441.78c0-3.12,0.53-5.44,1.58-6.98s2.59-2.3,4.61-2.3c1.46,0,2.68,0.63,3.66,1.9v-9.53h5.01v27h-4.52l-0.23-1.93
		c-1.02,1.52-2.33,2.29-3.94,2.29c-1.99,0-3.51-0.76-4.56-2.29s-1.58-3.76-1.61-6.71V441.78z M1527.3,443.03
		c0,1.88,0.2,3.18,0.6,3.93s1.07,1.12,2.02,1.12c0.98,0,1.73-0.44,2.23-1.32v-8.68c-0.49-0.94-1.23-1.41-2.21-1.41
		c-0.91,0-1.58,0.37-2,1.11s-0.63,2.05-0.63,3.94V443.03z"/>
	<path d="M1548.5,452.22c-2.55,0-4.55-0.76-5.98-2.29s-2.14-3.7-2.14-6.54v-1.51c0-3,0.66-5.31,1.97-6.94s3.19-2.44,5.64-2.44
		c2.39,0,4.19,0.76,5.4,2.29c1.21,1.53,1.82,3.79,1.85,6.78v2.44h-9.9c0.07,1.41,0.38,2.45,0.93,3.1c0.55,0.65,1.4,0.98,2.55,0.98
		c1.66,0,3.05-0.57,4.17-1.71l1.95,3.01c-0.61,0.84-1.49,1.53-2.65,2.05S1549.86,452.22,1548.5,452.22z M1545.37,440.55h4.97v-0.46
		c-0.02-1.14-0.21-2-0.56-2.58s-0.96-0.88-1.83-0.88s-1.5,0.31-1.89,0.93S1545.44,439.18,1545.37,440.55z"/>
</g>
<g>
	<path d="M1481.96,636.23h9.07v4.29h-14.24v-25.59h5.17V636.23z"/>
	<path d="M1493.78,616.58c0-0.77,0.25-1.41,0.74-1.9s1.15-0.74,1.97-0.74s1.48,0.25,1.97,0.74s0.74,1.13,0.74,1.9
		c0,0.76-0.24,1.39-0.73,1.9s-1.15,0.76-1.98,0.76s-1.49-0.25-1.98-0.76S1493.78,617.34,1493.78,616.58z M1499,640.52H1494V621.5
		h4.99V640.52z"/>
	<path d="M1502.25,630.43c0-3.12,0.56-5.44,1.69-6.98s2.7-2.3,4.73-2.3c1.72,0,3.05,0.68,3.99,2.04l0.19-1.69h4.48v19.02
		c0,2.43-0.68,4.28-2.04,5.56s-3.31,1.92-5.85,1.92c-1.04,0-2.14-0.21-3.29-0.62s-2-0.95-2.57-1.59l1.67-3.45
		c0.47,0.49,1.08,0.89,1.83,1.2s1.46,0.47,2.13,0.47c1.11,0,1.91-0.27,2.4-0.8s0.74-1.39,0.75-2.58v-1.63
		c-0.95,1.24-2.19,1.86-3.71,1.86c-2.03,0-3.59-0.79-4.7-2.36s-1.67-3.8-1.7-6.67V630.43z M1507.22,631.68
		c0,1.76,0.23,3.04,0.69,3.84s1.18,1.2,2.18,1.2c1.02,0,1.78-0.37,2.27-1.11v-9.09c-0.52-0.81-1.26-1.21-2.23-1.21
		c-0.98,0-1.71,0.4-2.19,1.21s-0.71,2.11-0.71,3.9V631.68z"/>
	<path d="M1525.8,623.17c1.08-1.35,2.4-2.02,3.97-2.02c1.73,0,3.05,0.61,3.96,1.83s1.36,3.04,1.37,5.45v12.09h-4.99v-12.04
		c0-1.11-0.17-1.92-0.52-2.42s-0.91-0.75-1.68-0.75c-0.9,0-1.61,0.42-2.11,1.25v13.96h-4.97v-27h4.97V623.17z"/>
	<path d="M1544.45,616.83v4.68h2.55v3.73h-2.55v9.45c0,0.75,0.1,1.27,0.31,1.55c0.21,0.28,0.6,0.42,1.19,0.42
		c0.48,0,0.87-0.04,1.18-0.12l-0.04,3.87c-0.84,0.32-1.76,0.47-2.74,0.47c-3.21,0-4.83-1.84-4.87-5.53v-10.12h-2.2v-3.73h2.2v-4.68
		H1544.45z"/>
	<path d="M1569.08,633.81c0-1.04-0.27-1.83-0.8-2.36s-1.5-1.09-2.91-1.66c-2.57-0.97-4.41-2.11-5.54-3.42s-1.69-2.85-1.69-4.63
		c0-2.16,0.76-3.89,2.29-5.19s3.47-1.96,5.83-1.96c1.57,0,2.97,0.33,4.2,0.99s2.18,1.6,2.84,2.8s0.99,2.58,0.99,4.11h-5.15
		c0-1.2-0.25-2.11-0.76-2.73s-1.25-0.94-2.21-0.94c-0.9,0-1.61,0.27-2.11,0.8s-0.76,1.25-0.76,2.15c0,0.7,0.28,1.34,0.84,1.91
		s1.56,1.16,2.99,1.77c2.5,0.9,4.31,2.01,5.44,3.32s1.7,2.98,1.7,5.01c0,2.23-0.71,3.97-2.13,5.22s-3.35,1.88-5.78,1.88
		c-1.65,0-3.16-0.34-4.52-1.02s-2.42-1.65-3.19-2.92s-1.15-2.76-1.15-4.48h5.19c0,1.48,0.29,2.55,0.86,3.22s1.51,1,2.81,1
		C1568.18,636.67,1569.08,635.72,1569.08,633.81z"/>
	<path d="M1576.89,630.4c0-2.88,0.68-5.14,2.04-6.79s3.24-2.46,5.64-2.46c2.43,0,4.32,0.82,5.68,2.46s2.04,3.91,2.04,6.82v1.21
		c0,2.89-0.67,5.16-2.02,6.79s-3.23,2.44-5.66,2.44c-2.44,0-4.33-0.82-5.69-2.45s-2.03-3.91-2.03-6.81V630.4z M1581.88,631.64
		c0,3.4,0.91,5.1,2.72,5.1c1.68,0,2.58-1.42,2.71-4.25l0.02-2.09c0-1.73-0.24-3.02-0.72-3.86s-1.16-1.26-2.04-1.26
		c-0.84,0-1.5,0.42-1.98,1.26s-0.71,2.12-0.71,3.86V631.64z"/>
	<path d="M1604.73,638.78c-1.03,1.39-2.41,2.09-4.15,2.09c-1.75,0-3.07-0.6-3.97-1.8s-1.35-2.95-1.35-5.25V621.5h4.97v12.45
		c0.02,1.85,0.64,2.78,1.85,2.78c1.14,0,1.96-0.49,2.46-1.48V621.5h5.01v19.02h-4.68L1604.73,638.78z"/>
	<path d="M1622.48,626.3l-1.65-0.14c-1.36,0-2.28,0.6-2.76,1.79v12.57h-4.99V621.5h4.69l0.14,2.06c0.79-1.61,1.87-2.41,3.25-2.41
		c0.56,0,1.02,0.08,1.37,0.23L1622.48,626.3z"/>
	<path d="M1631.57,636.74c1.44,0,2.17-0.94,2.2-2.81h4.68c-0.02,2.07-0.66,3.75-1.92,5.03s-2.87,1.92-4.85,1.92
		c-2.45,0-4.32-0.76-5.61-2.29s-1.95-3.77-1.97-6.73v-1.51c0-2.99,0.64-5.27,1.91-6.84s3.15-2.36,5.63-2.36
		c2.1,0,3.75,0.65,4.96,1.94s1.82,3.13,1.85,5.51h-4.68c-0.01-1.07-0.19-1.89-0.53-2.46s-0.9-0.86-1.69-0.86
		c-0.87,0-1.49,0.31-1.86,0.92s-0.57,1.81-0.6,3.58v1.93c0,1.55,0.08,2.63,0.23,3.24s0.4,1.07,0.76,1.35
		S1630.93,636.74,1631.57,636.74z"/>
	<path d="M1648.94,640.87c-2.55,0-4.55-0.76-5.98-2.29s-2.14-3.7-2.14-6.54v-1.51c0-3,0.66-5.31,1.97-6.94s3.19-2.44,5.64-2.44
		c2.39,0,4.19,0.76,5.4,2.29c1.21,1.53,1.82,3.79,1.85,6.78v2.44h-9.9c0.07,1.41,0.38,2.45,0.93,3.1s1.4,0.98,2.55,0.98
		c1.66,0,3.05-0.57,4.17-1.71l1.95,3.01c-0.61,0.84-1.49,1.53-2.65,2.05S1650.3,640.87,1648.94,640.87z M1645.81,629.2h4.97v-0.46
		c-0.02-1.14-0.21-2-0.56-2.58s-0.96-0.88-1.83-0.88s-1.5,0.31-1.89,0.93S1645.88,627.83,1645.81,629.2z"/>
</g>
<g>
	<path d="M350.24,521.75l4.83,18.51l4.82-18.51h6.75v25.59h-5.19v-6.93l0.47-10.67l-5.12,17.6h-3.52l-5.12-17.6l0.47,10.67v6.93
		h-5.17v-25.59H350.24z"/>
	<path d="M370.54,523.41c0-0.77,0.25-1.41,0.74-1.9s1.15-0.74,1.97-0.74s1.48,0.25,1.97,0.74s0.74,1.13,0.74,1.9
		c0,0.76-0.24,1.39-0.73,1.9s-1.15,0.76-1.98,0.76s-1.49-0.25-1.98-0.76S370.54,524.17,370.54,523.41z M375.76,547.35h-4.99v-19.02
		h4.99V547.35z"/>
	<path d="M389,533.13l-1.65-0.14c-1.36,0-2.28,0.6-2.76,1.79v12.57h-4.99v-19.02h4.69l0.14,2.06c0.79-1.61,1.87-2.41,3.25-2.41
		c0.56,0,1.02,0.08,1.37,0.23L389,533.13z"/>
	<path d="M400.94,533.13l-1.65-0.14c-1.36,0-2.28,0.6-2.76,1.79v12.57h-4.99v-19.02h4.69l0.14,2.06c0.79-1.61,1.87-2.41,3.25-2.41
		c0.56,0,1.02,0.08,1.37,0.23L400.94,533.13z"/>
	<path d="M402.27,537.22c0-2.88,0.68-5.14,2.04-6.79s3.24-2.46,5.64-2.46c2.43,0,4.32,0.82,5.68,2.46s2.04,3.91,2.04,6.82v1.21
		c0,2.89-0.67,5.16-2.02,6.79s-3.23,2.44-5.66,2.44c-2.44,0-4.33-0.82-5.69-2.45s-2.03-3.91-2.03-6.81V537.22z M407.26,538.47
		c0,3.4,0.91,5.1,2.72,5.1c1.68,0,2.58-1.42,2.71-4.25l0.02-2.09c0-1.73-0.24-3.02-0.72-3.86s-1.16-1.26-2.04-1.26
		c-0.84,0-1.5,0.42-1.98,1.26s-0.71,2.12-0.71,3.86V538.47z"/>
	<path d="M430.15,533.13l-1.65-0.14c-1.36,0-2.28,0.6-2.76,1.79v12.57h-4.99v-19.02h4.69l0.14,2.06c0.79-1.61,1.87-2.41,3.25-2.41
		c0.56,0,1.02,0.08,1.37,0.23L430.15,533.13z"/>
</g>
<rect x="464" y="472" class="st8" width="76" height="131"/>
<g>
	<path d="M522.47,443.55c0,3.43-0.81,6.1-2.43,8s-3.88,2.85-6.76,2.85c-2.87,0-5.13-0.94-6.77-2.82s-2.47-4.51-2.5-7.9v-4.38
		c0-3.52,0.81-6.26,2.44-8.24s3.89-2.96,6.79-2.96c2.85,0,5.09,0.97,6.73,2.91s2.47,4.66,2.5,8.17V443.55z M517.28,439.26
		c0-2.31-0.33-4.03-0.98-5.15s-1.68-1.69-3.06-1.69c-1.37,0-2.38,0.54-3.04,1.63s-1,2.73-1.02,4.95v4.55c0,2.24,0.33,3.89,1,4.95
		s1.7,1.59,3.09,1.59c1.35,0,2.35-0.52,3.01-1.56s0.99-2.65,1-4.83V439.26z"/>
	<path d="M540.76,445.15c0,3.08-0.49,5.39-1.48,6.93s-2.53,2.31-4.64,2.31c-1.65,0-2.98-0.74-3.97-2.23l-0.16,1.88h-4.59v-27h4.97
		v9.53c0.94-1.27,2.17-1.9,3.71-1.9c2.11,0,3.66,0.76,4.64,2.29s1.49,3.77,1.51,6.72V445.15z M535.79,443.9c0-2-0.19-3.35-0.58-4.03
		s-1.06-1.03-2.02-1.03c-1.04,0-1.8,0.47-2.29,1.42v8.67c0.45,0.89,1.22,1.34,2.32,1.34c0.95,0,1.61-0.31,1.98-0.93
		s0.57-1.83,0.59-3.62V443.9z"/>
	<path d="M552.17,448.95c0-0.42-0.2-0.81-0.61-1.17s-1.3-0.84-2.7-1.45c-2.05-0.83-3.46-1.69-4.23-2.58s-1.15-2-1.15-3.32
		c0-1.66,0.6-3.04,1.8-4.12s2.79-1.63,4.77-1.63c2.09,0,3.76,0.54,5.01,1.62s1.88,2.53,1.88,4.34h-4.97c0-1.55-0.64-2.32-1.93-2.32
		c-0.53,0-0.96,0.16-1.3,0.49s-0.51,0.79-0.51,1.37c0,0.42,0.19,0.79,0.56,1.12s1.26,0.78,2.65,1.38c2.03,0.75,3.46,1.58,4.3,2.5
		s1.26,2.11,1.26,3.58c0,1.7-0.64,3.06-1.92,4.1s-2.95,1.55-5.03,1.55c-1.39,0-2.63-0.27-3.69-0.82s-1.9-1.3-2.5-2.28
		s-0.91-2.02-0.91-3.15h4.73c0.02,0.87,0.23,1.52,0.61,1.95s1,0.65,1.87,0.65C551.5,450.76,552.17,450.15,552.17,448.95z"/>
	<path d="M567.78,454.4c-2.55,0-4.55-0.76-5.98-2.29s-2.14-3.7-2.14-6.54v-1.51c0-3,0.66-5.31,1.97-6.94s3.19-2.44,5.64-2.44
		c2.39,0,4.19,0.76,5.4,2.29c1.21,1.53,1.82,3.79,1.85,6.78v2.44h-9.9c0.07,1.41,0.38,2.45,0.93,3.1c0.55,0.65,1.4,0.98,2.55,0.98
		c1.66,0,3.05-0.57,4.17-1.71l1.95,3.01c-0.61,0.84-1.49,1.53-2.65,2.05S569.14,454.4,567.78,454.4z M564.65,442.72h4.97v-0.46
		c-0.02-1.14-0.21-2-0.56-2.58s-0.96-0.88-1.83-0.88s-1.5,0.31-1.89,0.93S564.72,441.35,564.65,442.72z"/>
	<path d="M586.71,439.82l-1.65-0.14c-1.36,0-2.28,0.6-2.76,1.79v12.57h-4.99v-19.02H582l0.14,2.06c0.79-1.61,1.87-2.41,3.25-2.41
		c0.56,0,1.02,0.08,1.37,0.23L586.71,439.82z"/>
	<path d="M595.82,447.01l2.41-11.99h5.19l-5.22,19.02h-4.75l-5.24-19.02h5.2L595.82,447.01z"/>
	<path d="M614.52,454.04c-0.14-0.29-0.28-0.79-0.42-1.48c-0.89,1.22-2.1,1.83-3.62,1.83c-1.59,0-2.92-0.53-3.96-1.58
		s-1.57-2.42-1.57-4.1c0-1.99,0.64-3.53,1.91-4.62s3.1-1.65,5.49-1.67h1.51v-1.53c0-0.86-0.15-1.46-0.44-1.81s-0.72-0.53-1.28-0.53
		c-1.24,0-1.86,0.73-1.86,2.18h-4.97c0-1.76,0.66-3.21,1.98-4.35s2.99-1.71,5-1.71c2.09,0,3.7,0.54,4.84,1.63s1.71,2.63,1.71,4.65
		v8.95c0.02,1.64,0.26,2.92,0.7,3.85v0.3H614.52z M611.59,450.49c0.55,0,1.02-0.11,1.41-0.33s0.67-0.49,0.86-0.79v-3.96h-1.2
		c-0.84,0-1.51,0.27-2,0.81s-0.73,1.26-0.73,2.16C609.93,449.79,610.48,450.49,611.59,450.49z"/>
	<path d="M628.22,430.35v4.68h2.55v3.73h-2.55v9.45c0,0.75,0.1,1.27,0.31,1.55s0.6,0.42,1.19,0.42c0.48,0,0.87-0.04,1.18-0.12
		l-0.04,3.87c-0.84,0.32-1.76,0.47-2.74,0.47c-3.21,0-4.83-1.84-4.87-5.53v-10.12h-2.2v-3.73h2.2v-4.68H628.22z"/>
	<path d="M633.49,430.1c0-0.77,0.25-1.41,0.74-1.9s1.15-0.74,1.97-0.74s1.48,0.25,1.97,0.74s0.74,1.13,0.74,1.9
		c0,0.76-0.24,1.39-0.73,1.9s-1.15,0.76-1.98,0.76s-1.49-0.25-1.98-0.76S633.49,430.86,633.49,430.1z M638.71,454.04h-4.99v-19.02
		h4.99V454.04z"/>
	<path d="M641.98,443.92c0-2.88,0.68-5.14,2.04-6.79s3.24-2.46,5.64-2.46c2.43,0,4.32,0.82,5.68,2.46s2.04,3.91,2.04,6.82v1.21
		c0,2.89-0.67,5.16-2.02,6.79s-3.23,2.44-5.66,2.44c-2.44,0-4.33-0.82-5.69-2.45s-2.03-3.91-2.03-6.81V443.92z M646.97,445.17
		c0,3.4,0.91,5.1,2.72,5.1c1.68,0,2.58-1.42,2.71-4.25l0.02-2.09c0-1.73-0.24-3.02-0.72-3.86s-1.16-1.26-2.04-1.26
		c-0.84,0-1.5,0.42-1.98,1.26s-0.71,2.12-0.71,3.86V445.17z"/>
	<path d="M665.02,435.02l0.14,1.88c1.13-1.49,2.6-2.23,4.41-2.23c3.27,0,4.95,2.29,5.04,6.87v12.5h-4.99v-12.13
		c0-1.08-0.16-1.86-0.48-2.35s-0.89-0.73-1.7-0.73c-0.9,0-1.61,0.46-2.11,1.39v13.82h-4.99v-19.02H665.02z"/>
	<path d="M698.95,448.81h-7.05l-1.37,5.24h-5.47l8-25.59h4.73l8.05,25.59h-5.52L698.95,448.81z M693.03,444.5h4.78l-2.39-9.12
		L693.03,444.5z"/>
	<path d="M717.37,439.82l-1.65-0.14c-1.36,0-2.28,0.6-2.76,1.79v12.57h-4.99v-19.02h4.69l0.14,2.06c0.79-1.61,1.87-2.41,3.25-2.41
		c0.56,0,1.02,0.08,1.37,0.23L717.37,439.82z"/>
	<path d="M727.27,454.4c-2.55,0-4.55-0.76-5.98-2.29s-2.14-3.7-2.14-6.54v-1.51c0-3,0.66-5.31,1.97-6.94s3.19-2.44,5.64-2.44
		c2.39,0,4.19,0.76,5.4,2.29c1.21,1.53,1.82,3.79,1.85,6.78v2.44h-9.9c0.07,1.41,0.38,2.45,0.93,3.1c0.55,0.65,1.4,0.98,2.55,0.98
		c1.66,0,3.05-0.57,4.17-1.71l1.95,3.01c-0.61,0.84-1.49,1.53-2.65,2.05S728.63,454.4,727.27,454.4z M724.14,442.72h4.97v-0.46
		c-0.02-1.14-0.21-2-0.56-2.58s-0.96-0.88-1.83-0.88s-1.5,0.31-1.89,0.93S724.21,441.35,724.14,442.72z"/>
	<path d="M745.85,454.04c-0.14-0.29-0.28-0.79-0.42-1.48c-0.89,1.22-2.1,1.83-3.62,1.83c-1.59,0-2.92-0.53-3.96-1.58
		s-1.57-2.42-1.57-4.1c0-1.99,0.64-3.53,1.91-4.62s3.1-1.65,5.49-1.67h1.51v-1.53c0-0.86-0.15-1.46-0.44-1.81s-0.72-0.53-1.28-0.53
		c-1.24,0-1.86,0.73-1.86,2.18h-4.97c0-1.76,0.66-3.21,1.98-4.35s2.99-1.71,5-1.71c2.09,0,3.7,0.54,4.84,1.63s1.71,2.63,1.71,4.65
		v8.95c0.02,1.64,0.26,2.92,0.7,3.85v0.3H745.85z M742.91,450.49c0.55,0,1.02-0.11,1.41-0.33s0.67-0.49,0.86-0.79v-3.96h-1.2
		c-0.84,0-1.51,0.27-2,0.81s-0.73,1.26-0.73,2.16C741.26,449.79,741.81,450.49,742.91,450.49z"/>
</g>
<g>
</g>
<g>
</g>
<g>
</g>
<g>
</g>
<g>
</g>
<g>
</g>
<g>
</g>
<g>
</g>
<g>
</g>
<g>
</g>
<g>
</g>
<g>
</g>
<g>
</g>
<g>
</g>
<g>
</g>
</svg>
